<svg width="32" height="29" viewBox="0 0 32 29" fill="none" xmlns="http://www.w3.org/2000/svg">
<path d="M2 2H10.3333C11.8068 2 13.2198 2.58532 14.2617 3.62718C15.3036 4.66905 15.8889 6.08213 15.8889 7.55556V27C15.8889 25.8949 15.4499 24.8351 14.6685 24.0537C13.8871 23.2723 12.8273 22.8333 11.7222 22.8333H2V2Z" stroke="white" stroke-width="3" stroke-linecap="round" stroke-linejoin="round"/>
<path d="M29.7776 2H21.4442C19.9708 2 18.5577 2.58532 17.5159 3.62718C16.474 4.66905 15.8887 6.08213 15.8887 7.55556V27C15.8887 25.8949 16.3277 24.8351 17.1091 24.0537C17.8905 23.2723 18.9503 22.8333 20.0553 22.8333H29.7776V2Z" stroke="white" stroke-width="3" stroke-linecap="round" stroke-linejoin="round"/>
</svg>
